<?xml version="1.0" encoding="utf-8"?>
<svg width="512" height="512" viewBox="0 0 512 512" id="svg2" version="1.1" xmlns="http://www.w3.org/2000/svg">
<rect style="opacity:1;fill:#b6d46f;fill-opacity:1;stroke:none;stroke-width:1;stroke-linecap:butt;stroke-linejoin:miter;stroke-miterlimit:4;stroke-dasharray:none;stroke-dashoffset:0;stroke-opacity:1" id="rect-1" width="512" height="512"/>
<path style="color:#000000;font-style:normal;font-variant:normal;font-weight:normal;font-stretch:normal;font-size:medium;line-height:normal;font-family:sans-serif;text-indent:0;text-align:start;text-decoration:none;text-decoration-line:none;text-decoration-style:solid;text-decoration-color:#000000;letter-spacing:normal;word-spacing:normal;text-transform:none;direction:ltr;block-progression:tb;writing-mode:lr-tb;baseline-shift:baseline;text-anchor:start;white-space:normal;clip-rule:nonzero;display:inline;overflow:visible;visibility:visible;opacity:1;isolation:auto;mix-blend-mode:normal;color-interpolation:sRGB;color-interpolation-filters:linearRGB;solid-color:#000000;solid-opacity:1;fill:#000000;fill-opacity:0.1254902;fill-rule:nonzero;stroke:none;stroke-width:8.60725021;stroke-linecap:butt;stroke-linejoin:miter;stroke-miterlimit:4;stroke-dasharray:none;stroke-dashoffset:0;stroke-opacity:1;color-rendering:auto;image-rendering:auto;shape-rendering:auto;text-rendering:auto;enable-background:accumulate" d="M 358.676 156.524 L 512 309.078 L 512 512 L 312.39 512 L 156.268 356.663 C 100.578 301.254 100.405 211.759 156.268 156.524 C 184.199 128.907 220.835 115.102 257.472 115.102 C 294.109 115.102 330.832 128.82 358.676 156.524 Z" id="path5462"/>
<circle r="141.465" cy="256" cx="256" id="circle5467" style="fill:#ffffff;fill-opacity:1;stroke:none;stroke-width:4;stroke-linecap:butt;stroke-linejoin:miter;stroke-miterlimit:4;stroke-dasharray:none;stroke-opacity:1"/>
<text style="font-style: normal; font-weight: normal; font-size: 217.54px; line-height: 125%; font-family: Sans; letter-spacing: 0px; word-spacing: 0px; fill: rgb(0, 0, 0); fill-opacity: 1; stroke: none; white-space: pre;" x="24816.699" y="13685.234" id="text5084"><tspan id="tspan5086" x="24816.699" y="13685.234" style="font-size: 217.5px; word-spacing: 0px;"/></text>
<text style="font-style: normal; font-weight: normal; font-size: 217.54px; line-height: 125%; font-family: Sans; letter-spacing: 0px; word-spacing: 0px; fill: rgb(0, 0, 0); fill-opacity: 1; stroke: none; white-space: pre;" x="27713.496" y="13653.656" id="text5084-0"><tspan id="tspan5086-1" x="27713.496" y="13653.656" style="font-size: 217.5px; word-spacing: 0px;"/></text>
<text style="font-style: normal; font-weight: normal; font-size: 217.54px; line-height: 125%; font-family: Sans; letter-spacing: 0px; word-spacing: 0px; fill: rgb(0, 0, 0); fill-opacity: 1; stroke: none; white-space: pre;" x="28395.479" y="13819.282" id="text5084-3"><tspan id="tspan5086-18" x="28395.479" y="13819.282" style="font-size: 217.5px; word-spacing: 0px;"/></text>
<text style="font-style: normal; font-weight: normal; font-size: 23.4584px; line-height: 125%; font-family: Sans; letter-spacing: 0px; word-spacing: 0px; fill: rgb(0, 0, 0); fill-opacity: 1; stroke: none; white-space: pre;" x="2270.087" y="2308.264" id="text5084-7"><tspan id="tspan5086-8" x="2270.087" y="2308.264" style="font-size: 23.5px; word-spacing: 0px;"/></text>
<text style="font-style: normal; font-weight: normal; font-size: 33.3253px; line-height: 125%; font-family: Sans; letter-spacing: 0px; word-spacing: 0px; fill: rgb(0, 0, 0); fill-opacity: 1; stroke: none; white-space: pre;" x="3972.698" y="2935.438" id="text5084-3-4"><tspan id="tspan5086-9" x="3972.698" y="2935.438" style="font-size: 33.3px; word-spacing: 0px;"/></text>
<text style="font-style: normal; font-weight: normal; font-size: 33.3253px; line-height: 125%; font-family: Sans; letter-spacing: 0px; word-spacing: 0px; fill: rgb(0, 0, 0); fill-opacity: 1; stroke: none; white-space: pre;" x="3360.48" y="2940.275" id="text5084-9"><tspan id="tspan5086-96" x="3360.48" y="2940.275" style="font-size: 33.3px; word-spacing: 0px;"/></text>
<text style="font-style: normal; font-weight: normal; font-size: 36.0129px; line-height: 125%; font-family: Sans; letter-spacing: 0px; word-spacing: 0px; fill: rgb(0, 0, 0); fill-opacity: 1; stroke: none; white-space: pre;" x="3506.225" y="3854.336" id="text5152"><tspan id="tspan5154" x="3506.225" y="3854.336" style="font-size: 36px; word-spacing: 0px;"/></text>
<text style="font-style: normal; font-weight: normal; font-size: 45.1505px; line-height: 125%; font-family: Sans; letter-spacing: 0px; word-spacing: 0px; fill: rgb(0, 0, 0); fill-opacity: 1; stroke: none; white-space: pre;" x="4760.452" y="4658.046" id="text5396"><tspan id="tspan5398" x="4760.452" y="4658.046" style="font-size: 45.2px; word-spacing: 0px;"/></text>
<text style="font-style: normal; font-weight: normal; font-size: 33.3253px; line-height: 125%; font-family: Sans; letter-spacing: 0px; word-spacing: 0px; fill: rgb(0, 0, 0); fill-opacity: 1; stroke: none; white-space: pre;" x="4773.046" y="2770.763" id="text5084-7-9"><tspan id="tspan5086-0" x="4773.046" y="2770.763" style="font-size: 33.3px; word-spacing: 0px;"/></text>
<path d="M 356.454 256 C 356.454 280.582 347.625 303.103 332.962 320.562 L 332.962 191.438 C 347.625 208.897 356.454 231.418 356.454 256 Z M 256 356.454 C 253.12 356.454 250.269 356.331 247.45 356.096 L 247.45 155.904 C 250.269 155.669 253.12 155.546 256 155.546 C 258.88 155.546 261.731 155.669 264.55 155.904 L 264.55 356.096 C 261.731 356.331 258.88 356.454 256 356.454 Z M 155.546 256 C 155.546 231.418 164.375 208.897 179.038 191.438 L 179.038 320.562 C 164.375 303.103 155.546 280.582 155.546 256 Z M 298.757 346.927 C 293.305 349.494 287.585 351.586 281.651 353.148 L 281.651 158.852 C 287.585 160.414 293.305 162.506 298.757 165.073 L 298.757 346.927 Z M 230.345 353.148 C 217.82 349.85 206.251 344.193 196.144 336.682 L 196.144 175.318 C 206.251 167.807 217.82 162.15 230.345 158.852 L 230.345 353.148 Z" style="fill: rgb(0, 0, 0); fill-opacity: 1; stroke: none; stroke-width: 4; stroke-linecap: butt; stroke-linejoin: miter; stroke-miterlimit: 4; stroke-dasharray: none; stroke-opacity: 1;" id="path-1"/>
</svg>