<?xml version="1.0" encoding="utf-8"?>
<svg height="24" viewBox="0 0 24 24" width="24" xmlns="http://www.w3.org/2000/svg">
  <path d="M24 24H0V0h24v24z" fill="none"/>
  <path d="M 4.413 15.067 L 3.533 15.067 L 3.533 16.997 L 2.163 16.997 L 2.163 11.307 L 4.433 11.307 C 4.866 11.307 5.25 11.387 5.583 11.547 C 5.923 11.707 6.183 11.937 6.363 12.237 C 6.55 12.53 6.643 12.864 6.643 13.237 C 6.643 13.79 6.443 14.234 6.043 14.567 C 5.643 14.9 5.1 15.067 4.413 15.067 Z M 3.533 12.367 L 3.533 14.007 L 4.433 14.007 C 4.7 14.007 4.903 13.94 5.043 13.807 C 5.183 13.674 5.253 13.487 5.253 13.247 C 5.253 12.98 5.18 12.767 5.033 12.607 C 4.893 12.447 4.696 12.367 4.443 12.367 L 3.533 12.367 ZM 12.12 11.307 L 12.12 16.997 L 10.76 16.997 L 8.74 13.457 L 8.74 16.997 L 7.37 16.997 L 7.37 11.307 L 8.74 11.307 L 10.75 14.847 L 10.75 11.307 L 12.12 11.307 ZM 17.647 13.957 L 17.647 16.297 C 17.434 16.53 17.124 16.717 16.717 16.857 C 16.31 17.004 15.864 17.077 15.377 17.077 C 14.637 17.077 14.044 16.847 13.597 16.387 C 13.15 15.934 12.91 15.3 12.877 14.487 L 12.877 13.997 C 12.877 13.437 12.977 12.947 13.177 12.527 C 13.37 12.114 13.654 11.794 14.027 11.567 C 14.394 11.34 14.82 11.227 15.307 11.227 C 16.014 11.227 16.564 11.39 16.957 11.717 C 17.344 12.037 17.57 12.52 17.637 13.167 L 16.317 13.167 C 16.27 12.847 16.17 12.62 16.017 12.487 C 15.857 12.354 15.634 12.287 15.347 12.287 C 15.007 12.287 14.744 12.43 14.557 12.717 C 14.364 13.01 14.267 13.427 14.267 13.967 L 14.267 14.317 C 14.267 14.884 14.364 15.31 14.557 15.597 C 14.75 15.877 15.057 16.017 15.477 16.017 C 15.83 16.017 16.094 15.94 16.267 15.787 L 16.267 14.897 L 15.317 14.897 L 15.317 13.957 L 17.647 13.957 Z" transform="matrix(1, 0, 0, 1, 0, 0)" style="white-space: pre;"/>
  <path d="M 20.373 6.135 L 17.614 8.888 L 19.684 8.888 L 19.684 11.809 L 21.063 11.809 L 21.063 8.888 L 23.133 8.888 L 20.373 6.135 Z" style="" transform="matrix(0.707107, 0.707107, -0.707107, 0.707107, 12.311422, -11.778402)"/>
</svg>