<?xml version="1.0" encoding="utf-8"?>
<svg height="24" viewBox="0 0 24 24" width="24" xmlns="http://www.w3.org/2000/svg">
  <path d="M 14.54 18.49 L 14.54 16.51 L 17.51 16.51 L 17.51 13.54 L 19.49 13.54 L 19.49 16.51 L 22.46 16.51 L 22.46 18.49 L 19.508 18.508 L 19.49 21.46 L 17.51 21.46 L 17.492 18.508 L 14.54 18.49 Z M 13.35 14.75 L 11 12.4 L 11 7 L 13 7 L 13 11.6 L 14.4 13 L 13.35 14.75 Z M 3 10 L 3 4 L 5 4 L 5 6.35 C 5.85 5.283 6.888 4.458 8.113 3.875 C 9.338 3.292 10.633 3 12 3 C 14.5 3 16.625 3.875 18.375 5.625 C 20.125 7.375 21 9.5 21 12 L 19 12 C 19 10.05 18.321 8.396 16.963 7.037 C 15.604 5.679 13.95 5 12 5 C 10.85 5 9.775 5.267 8.775 5.8 C 7.775 6.333 6.933 7.067 6.25 8 L 9 8 L 9 10 L 3 10 Z M 12 21 C 9.7 21 7.696 20.237 5.988 18.712 C 4.279 17.187 3.3 15.283 3.05 13 L 5.1 13 C 5.333 14.733 6.104 16.167 7.413 17.3 C 8.721 18.433 10.25 19 12 19 C 12.183 19 12.354 18.996 12.513 18.987 C 12.671 18.979 12.833 18.958 13 18.925 L 13 20.95 C 12.833 20.967 12.671 20.979 12.513 20.987 C 12.354 20.996 12.183 21 12 21 Z" style=""/>
</svg>