<?xml version="1.0" encoding="utf-8"?>
<svg height="24" viewBox="0 0 24 24" width="24" xmlns="http://www.w3.org/2000/svg">
  <path d="M24 24H0V0h24v24z" fill="none"/>
  <path d="M 5.45 15.487 C 5.45 15.287 5.38 15.13 5.24 15.017 C 5.1 14.904 4.85 14.787 4.49 14.667 C 4.137 14.547 3.847 14.43 3.62 14.317 C 2.88 13.957 2.51 13.46 2.51 12.827 C 2.51 12.514 2.603 12.237 2.79 11.997 C 2.97 11.757 3.23 11.57 3.57 11.437 C 3.903 11.297 4.28 11.227 4.7 11.227 C 5.107 11.227 5.473 11.3 5.8 11.447 C 6.127 11.594 6.377 11.804 6.55 12.077 C 6.73 12.344 6.82 12.65 6.82 12.997 L 5.46 12.997 C 5.46 12.764 5.387 12.584 5.24 12.457 C 5.1 12.33 4.91 12.267 4.67 12.267 C 4.423 12.267 4.23 12.32 4.09 12.427 C 3.95 12.534 3.88 12.67 3.88 12.837 C 3.88 12.984 3.957 13.117 4.11 13.237 C 4.263 13.357 4.537 13.48 4.93 13.607 C 5.323 13.734 5.647 13.87 5.9 14.017 C 6.513 14.37 6.82 14.857 6.82 15.477 C 6.82 15.977 6.633 16.367 6.26 16.647 C 5.887 16.934 5.373 17.077 4.72 17.077 C 4.26 17.077 3.843 16.994 3.47 16.827 C 3.097 16.66 2.813 16.434 2.62 16.147 C 2.433 15.86 2.34 15.53 2.34 15.157 L 3.72 15.157 C 3.72 15.457 3.797 15.68 3.95 15.827 C 4.11 15.974 4.367 16.047 4.72 16.047 C 4.947 16.047 5.127 15.997 5.26 15.897 C 5.387 15.797 5.45 15.66 5.45 15.487 ZM 8.608 11.307 L 9.738 15.447 L 10.868 11.307 L 12.398 11.307 L 10.488 16.997 L 8.988 16.997 L 7.088 11.307 L 8.608 11.307 ZM 17.422 13.957 L 17.422 16.297 C 17.209 16.53 16.899 16.717 16.492 16.857 C 16.085 17.004 15.639 17.077 15.152 17.077 C 14.412 17.077 13.819 16.847 13.372 16.387 C 12.925 15.934 12.685 15.3 12.652 14.487 L 12.652 13.997 C 12.652 13.437 12.752 12.947 12.952 12.527 C 13.145 12.114 13.429 11.794 13.802 11.567 C 14.169 11.34 14.595 11.227 15.082 11.227 C 15.789 11.227 16.339 11.39 16.732 11.717 C 17.119 12.037 17.345 12.52 17.412 13.167 L 16.092 13.167 C 16.045 12.847 15.945 12.62 15.792 12.487 C 15.632 12.354 15.409 12.287 15.122 12.287 C 14.782 12.287 14.519 12.43 14.332 12.717 C 14.139 13.01 14.042 13.427 14.042 13.967 L 14.042 14.317 C 14.042 14.884 14.139 15.31 14.332 15.597 C 14.525 15.877 14.832 16.017 15.252 16.017 C 15.605 16.017 15.869 15.94 16.042 15.787 L 16.042 14.897 L 15.092 14.897 L 15.092 13.957 L 17.422 13.957 Z" transform="matrix(1, 0, 0, 1, 0, 0)" style="white-space: pre;"/>
  <path d="M 19.58 6.075 L 16.821 8.828 L 18.891 8.828 L 18.891 11.749 L 20.27 11.749 L 20.27 8.828 L 22.34 8.828 L 19.58 6.075 Z" style="" transform="matrix(0.707107, 0.707107, -0.707107, 0.707107, 12.036731, -11.23524)"/>
</svg>