<?xml version="1.0" encoding="utf-8"?>
<svg width="192" height="192" viewBox="0 0 192 192" id="svg2" version="1.1" xmlns="http://www.w3.org/2000/svg">
<circle r="88" cy="98" cx="96" id="circle5439" style="fill:#a6c45f;fill-opacity:1;stroke:none;stroke-width:4;stroke-linecap:butt;stroke-linejoin:miter;stroke-miterlimit:4;stroke-dasharray:none;stroke-opacity:1"/>
<circle style="fill:#b6d46f;fill-opacity:1;stroke:none;stroke-width:4;stroke-linecap:butt;stroke-linejoin:miter;stroke-miterlimit:4;stroke-dasharray:none;stroke-opacity:1" id="path5437" cx="96" cy="96" r="88"/>
<path style="color:#000000;font-style:normal;font-variant:normal;font-weight:normal;font-stretch:normal;font-size:medium;line-height:normal;font-family:sans-serif;text-indent:0;text-align:start;text-decoration:none;text-decoration-line:none;text-decoration-style:solid;text-decoration-color:#000000;letter-spacing:normal;word-spacing:normal;text-transform:none;direction:ltr;block-progression:tb;writing-mode:lr-tb;baseline-shift:baseline;text-anchor:start;white-space:normal;clip-rule:nonzero;display:inline;overflow:visible;visibility:visible;opacity:1;isolation:auto;mix-blend-mode:normal;color-interpolation:sRGB;color-interpolation-filters:linearRGB;solid-color:#000000;solid-opacity:1;fill:#000000;fill-opacity:0.1254902;fill-rule:nonzero;stroke:none;stroke-width:8.60725021;stroke-linecap:butt;stroke-linejoin:miter;stroke-miterlimit:4;stroke-dasharray:none;stroke-dashoffset:0;stroke-opacity:1;color-rendering:auto;image-rendering:auto;shape-rendering:auto;text-rendering:auto;enable-background:accumulate" d="M 98.02 32.459 C 81.274 32.459 64.528 38.841 51.762 51.607 C 26.229 77.141 26.229 118.592 51.762 144.125 L 91.406 183.77 C 92.935 183.886 94.467 183.963 96 184 C 144.601 184 184 144.601 184 96 C 183.987 94.385 183.93 92.77 183.828 91.158 L 144.277 51.607 C 131.511 38.841 114.765 32.459 98.02 32.459 Z" id="path5462"/>
<circle r="64.838" cy="97.292" cx="97.284" id="circle5467" style="fill:#ffffff;fill-opacity:1;stroke:none;stroke-width:4;stroke-linecap:butt;stroke-linejoin:miter;stroke-miterlimit:4;stroke-dasharray:none;stroke-opacity:1"/>
<path d="M 143.33 97.292 C 143.33 108.56 139.283 118.883 132.562 126.886 L 132.562 67.698 C 139.283 75.701 143.33 86.024 143.33 97.292 Z M 97.284 143.338 C 95.964 143.338 94.657 143.282 93.365 143.174 L 93.365 51.41 C 94.657 51.302 95.964 51.246 97.284 51.246 C 98.604 51.246 99.911 51.302 101.203 51.41 L 101.203 143.174 C 99.911 143.282 98.604 143.338 97.284 143.338 Z M 51.238 97.292 C 51.238 86.024 55.285 75.701 62.006 67.698 L 62.006 126.886 C 55.285 118.883 51.238 108.56 51.238 97.292 Z M 116.883 138.971 C 114.384 140.148 111.762 141.107 109.042 141.823 L 109.042 52.761 C 111.762 53.477 114.384 54.436 116.883 55.613 Z M 85.524 141.823 C 79.783 140.311 74.48 137.718 69.847 134.275 L 69.847 60.309 C 74.48 56.866 79.783 54.273 85.524 52.761 Z" style="fill: rgb(0, 0, 0); fill-opacity: 1; stroke: none; stroke-width: 4; stroke-linecap: butt; stroke-linejoin: miter; stroke-miterlimit: 4; stroke-dasharray: none; stroke-opacity: 1;" id="circle-6"/>
</svg>