<?xml version="1.0" encoding="utf-8"?>
<svg width="90px" height="90px" viewBox="0 0 90 90" id="svg2" version="1.1" xmlns="http://www.w3.org/2000/svg">
<path d="M 58.262 45 C 58.262 52.324 52.324 58.262 45 58.262 C 37.676 58.262 31.738 52.324 31.738 45 C 31.738 37.676 37.676 31.738 45 31.738 C 52.324 31.738 58.262 37.676 58.262 45 Z M 45 27 C 35.059 27 27 35.059 27 45 C 27 54.941 35.059 63 45 63 C 54.941 63 63 54.941 63 45 C 63 35.059 54.941 27 45 27 Z" id="circle5467" style="fill-opacity: 1; stroke: none; stroke-width: 4; stroke-linecap: butt; stroke-linejoin: miter; stroke-miterlimit: 4; stroke-dasharray: none; stroke-opacity: 1;"/>
<path d="M 54.41 45 C 54.41 47.303 53.583 49.412 52.209 51.048 L 52.209 38.952 C 53.583 40.588 54.41 42.697 54.41 45 Z M 45 54.41 C 44.73 54.41 44.463 54.398 44.199 54.376 L 44.199 35.624 C 44.463 35.602 44.73 35.59 45 35.59 C 45.27 35.59 45.537 35.602 45.801 35.624 L 45.801 54.376 C 45.537 54.398 45.27 54.41 45 54.41 Z M 35.59 45 C 35.59 42.697 36.417 40.588 37.791 38.952 L 37.791 51.048 C 36.417 49.412 35.59 47.303 35.59 45 Z M 49.005 53.517 C 48.494 53.758 47.959 53.954 47.403 54.1 L 47.403 35.9 C 47.959 36.046 48.494 36.242 49.005 36.483 L 49.005 53.517 Z M 42.597 54.1 C 41.424 53.791 40.34 53.261 39.393 52.558 L 39.393 37.442 C 40.34 36.739 41.424 36.209 42.597 35.9 L 42.597 54.1 Z" style="fill: rgb(0, 0, 0); fill-opacity: 1; stroke: none; stroke-width: 4; stroke-linecap: butt; stroke-linejoin: miter; stroke-miterlimit: 4; stroke-dasharray: none; stroke-opacity: 1;" id="circle-6"/>
</svg>