<?xml version="1.0" encoding="utf-8"?>
<svg width="108" height="108" id="svg3317" version="1.1" viewBox="0 0 108 108" xmlns="http://www.w3.org/2000/svg">
<path style="color:#000000;font-style:normal;font-variant:normal;font-weight:normal;font-stretch:normal;font-size:medium;line-height:normal;font-family:sans-serif;text-indent:0;text-align:start;text-decoration:none;text-decoration-line:none;text-decoration-style:solid;text-decoration-color:#000000;letter-spacing:normal;word-spacing:normal;text-transform:none;direction:ltr;block-progression:tb;writing-mode:lr-tb;baseline-shift:baseline;text-anchor:start;white-space:normal;clip-rule:nonzero;display:inline;overflow:visible;visibility:visible;opacity:1;isolation:auto;mix-blend-mode:normal;color-interpolation:sRGB;color-interpolation-filters:linearRGB;solid-color:#000000;solid-opacity:1;fill:#000000;fill-opacity:0.1254902;fill-rule:nonzero;stroke:none;stroke-width:8.60725021;stroke-linecap:butt;stroke-linejoin:miter;stroke-miterlimit:4;stroke-dasharray:none;stroke-dashoffset:0;stroke-opacity:1;color-rendering:auto;image-rendering:auto;shape-rendering:auto;text-rendering:auto;enable-background:accumulate" d="M 54.723 28.295 C 47.873 28.295 41.022 30.876 35.8 36.04 C 25.354 46.368 25.386 63.102 35.8 73.463 L 72.018 109.499 L 108 108 L 109.827 72.038 L 73.647 36.04 C 68.44 30.86 61.574 28.295 54.723 28.295 Z" id="path5462"/>
<circle r="26.5" cy="-54" cx="-54" id="circle-2" style="fill: rgb(255, 255, 255); fill-opacity: 1; stroke: none; stroke-width: 4; stroke-linecap: butt; stroke-linejoin: miter; stroke-miterlimit: 4; stroke-dasharray: none; stroke-opacity: 1;" transform="matrix(-1, 0, 0, -1, 0, 0)"/>
<path d="M 72.819 54 C 72.819 58.605 71.163 62.824 68.417 66.095 L 68.417 41.905 C 71.163 45.176 72.819 49.395 72.819 54 Z M 53.998 72.819 C 53.459 72.819 52.924 72.796 52.397 72.753 L 52.397 35.247 C 52.924 35.203 53.459 35.181 53.998 35.181 C 54.538 35.181 55.072 35.203 55.6 35.247 L 55.6 72.753 C 55.072 72.796 54.538 72.819 53.998 72.819 Z M 35.179 54 C 35.179 49.395 36.833 45.176 39.58 41.905 L 39.58 66.095 C 36.833 62.824 35.179 58.605 35.179 54 Z M 62.008 71.035 C 60.988 71.516 59.915 71.908 58.804 72.201 L 58.804 35.799 C 59.915 36.092 60.988 36.484 62.008 36.965 L 62.008 71.035 Z M 49.192 72.201 C 46.845 71.582 44.678 70.522 42.784 69.115 L 42.784 38.885 C 44.678 37.477 46.845 36.418 49.192 35.799 L 49.192 72.201 Z" style="fill: rgb(0, 0, 0); fill-opacity: 1; stroke: none; stroke-width: 4; stroke-linecap: butt; stroke-linejoin: miter; stroke-miterlimit: 4; stroke-dasharray: none; stroke-opacity: 1;" id="path-2" transform="matrix(-1, 0, 0, -1, 107.998001, 108)"/>
</svg>