<?xml version="1.0" encoding="utf-8"?>
<svg height="108px" width="108px" viewBox="0 0 108 108" y="0px" x="0px" id="Ebene_1" version="1.1" xmlns="http://www.w3.org/2000/svg">
  <style id="style3" type="text/css">
	.st0{clip-path:url(#SVGID_2_);fill:#FFFFFF;}
</style>
  <path d="M 54 72.902 C 49.169 72.902 44.961 71.3 41.373 68.098 C 37.785 64.895 35.728 60.896 35.203 56.1 L 39.509 56.1 C 39.999 59.741 41.618 62.75 44.365 65.131 C 47.113 67.511 50.324 68.701 54 68.701 C 58.095 68.701 61.57 67.275 64.422 64.422 C 67.275 61.57 68.701 58.095 68.701 54 C 68.701 49.905 67.275 46.43 64.422 43.578 C 61.57 40.725 58.095 39.299 54 39.299 C 51.585 39.299 49.327 39.858 47.227 40.979 C 45.127 42.099 43.359 43.639 41.924 45.599 L 47.7 45.599 L 47.7 49.799 L 35.098 49.799 L 35.098 37.199 L 39.299 37.199 L 39.299 42.134 C 41.084 39.894 43.263 38.161 45.836 36.936 C 48.408 35.711 51.13 35.098 54 35.098 C 56.626 35.098 59.084 35.598 61.377 36.594 C 63.669 37.592 65.665 38.94 67.362 40.638 C 69.06 42.335 70.408 44.331 71.406 46.623 C 72.402 48.916 72.902 51.374 72.902 54 C 72.902 56.626 72.402 59.084 71.406 61.377 C 70.408 63.669 69.06 65.665 67.362 67.362 C 65.665 69.06 63.669 70.408 61.377 71.406 C 59.084 72.402 56.626 72.902 54 72.902 Z M 59.881 62.821 L 51.9 54.84 L 51.9 43.499 L 56.1 43.499 L 56.1 53.16 L 62.821 59.881 L 59.881 62.821 Z" style="fill: rgb(255, 255, 255);"/>
</svg>