<?xml version="1.0" encoding="utf-8"?>
<svg height="108px" width="108px" viewBox="0 0 108 108" y="0px" x="0px" id="Ebene_1" version="1.1" xmlns="http://www.w3.org/2000/svg">
<style id="style3" type="text/css">
	.st0{clip-path:url(#SVGID_2_);fill:#FFFFFF;}
</style>
<path id="path895" d="M 70.057 56.114 C 70.147 55.439 70.192 54.742 70.192 54 C 70.192 53.281 70.147 52.561 70.034 51.886 L 74.6 48.333 C 75.005 48.018 75.117 47.411 74.87 46.961 L 70.552 39.495 C 70.282 39 69.72 38.843 69.225 39 L 63.85 41.159 C 62.726 40.305 61.534 39.585 60.207 39.045 L 59.397 33.333 C 59.307 32.793 58.858 32.411 58.318 32.411 L 49.682 32.411 C 49.142 32.411 48.715 32.793 48.625 33.333 L 47.816 39.045 C 46.489 39.585 45.274 40.327 44.172 41.159 L 38.798 39 C 38.303 38.82 37.741 39 37.471 39.495 L 33.175 46.961 C 32.906 47.433 32.996 48.018 33.445 48.333 L 38.011 51.886 C 37.898 52.561 37.808 53.303 37.808 54 C 37.808 54.697 37.853 55.439 37.966 56.114 L 33.4 59.667 C 32.996 59.982 32.883 60.589 33.13 61.039 L 37.448 68.505 C 37.718 69 38.28 69.158 38.775 69 L 44.15 66.841 C 45.274 67.696 46.466 68.415 47.793 68.955 L 48.603 74.667 C 48.715 75.207 49.142 75.589 49.682 75.589 L 58.318 75.589 C 58.858 75.589 59.307 75.207 59.375 74.667 L 60.184 68.955 C 61.511 68.415 62.726 67.696 63.828 66.841 L 69.202 69 C 69.697 69.18 70.259 69 70.529 68.505 L 74.847 61.039 C 75.117 60.544 75.005 59.982 74.577 59.667 Z M 54 62.096 C 49.547 62.096 45.904 58.453 45.904 54 C 45.904 49.547 49.547 45.904 54 45.904 C 58.453 45.904 62.096 49.547 62.096 54 C 62.096 58.453 58.453 62.096 54 62.096 Z" style="opacity:1;fill:#ffffff;stop-opacity:1"/>
</svg>