<?xml version="1.0" encoding="utf-8"?>
<svg height="48" width="48" viewBox="0 0 48.000002 48.000002" y="0px" x="0px" id="Ebene_1" version="1.1" xmlns="http://www.w3.org/2000/svg">
  <style id="style3" type="text/css">
	.st0{clip-path:url(#SVGID_2_);fill:#FFFFFF;}
</style>
  <circle r="22.000004" cy="24.000002" cx="24.000002" id="path4134" style="fill:#b6d46f;fill-opacity:1"/>
  <path d="M 24 32.692 C 21.779 32.692 19.843 31.955 18.193 30.483 C 16.544 29.01 15.598 27.171 15.356 24.966 L 17.336 24.966 C 17.562 26.64 18.306 28.024 19.569 29.118 C 20.833 30.213 22.31 30.76 24 30.76 C 25.883 30.76 27.481 30.104 28.793 28.793 C 30.104 27.481 30.76 25.883 30.76 24 C 30.76 22.117 30.104 20.519 28.793 19.207 C 27.481 17.896 25.883 17.24 24 17.24 C 22.889 17.24 21.851 17.497 20.885 18.012 C 19.92 18.527 19.107 19.236 18.447 20.137 L 21.103 20.137 L 21.103 22.068 L 15.308 22.068 L 15.308 16.274 L 17.24 16.274 L 17.24 18.543 C 18.061 17.513 19.063 16.717 20.246 16.153 C 21.429 15.59 22.68 15.308 24 15.308 C 25.207 15.308 26.338 15.538 27.392 15.996 C 28.447 16.455 29.364 17.075 30.145 17.855 C 30.925 18.636 31.545 19.553 32.004 20.608 C 32.462 21.662 32.692 22.793 32.692 24 C 32.692 25.207 32.462 26.338 32.004 27.392 C 31.545 28.447 30.925 29.364 30.145 30.145 C 29.364 30.925 28.447 31.545 27.392 32.004 C 26.338 32.462 25.207 32.692 24 32.692 Z M 26.704 28.056 L 23.034 24.386 L 23.034 19.171 L 24.966 19.171 L 24.966 23.614 L 28.056 26.704 L 26.704 28.056 Z" style="fill: rgb(255, 255, 255);"/>
</svg>