<?xml version="1.0" encoding="UTF-8" standalone="no"?>
<svg
   xmlns:dc="http://purl.org/dc/elements/1.1/"
   xmlns:cc="http://creativecommons.org/ns#"
   xmlns:rdf="http://www.w3.org/1999/02/22-rdf-syntax-ns#"
   xmlns:svg="http://www.w3.org/2000/svg"
   xmlns="http://www.w3.org/2000/svg"
   xmlns:sodipodi="http://sodipodi.sourceforge.net/DTD/sodipodi-0.dtd"
   xmlns:inkscape="http://www.inkscape.org/namespaces/inkscape"
   version="1.1"
   id="Ebene_1"
   x="0px"
   y="0px"
   viewBox="0 0 48.000002 48.000002"
   xml:space="preserve"
   inkscape:version="1.0beta1 (32d4812, 2019-09-19)"
   sodipodi:docname="ic_shortcut_decode.svg"
   width="48"
   height="48">
  <metadata
   id="metadata23">
    <rdf:RDF>
      <cc:Work
   rdf:about="">
        <dc:format>image/svg+xml</dc:format>

        <dc:type
   rdf:resource="http://purl.org/dc/dcmitype/StillImage" />

        <dc:title />

      </cc:Work>

    </rdf:RDF>

  </metadata>

  <defs
   id="defs21" />

  <sodipodi:namedview
   pagecolor="#ffffff"
   bordercolor="#666666"
   borderopacity="1"
   objecttolerance="10"
   gridtolerance="10"
   guidetolerance="10"
   inkscape:pageopacity="0"
   inkscape:pageshadow="2"
   inkscape:window-width="1600"
   inkscape:window-height="907"
   id="namedview19"
   showgrid="false"
   inkscape:showpageshadow="false"
   inkscape:zoom="7.9431804"
   inkscape:cx="24.000002"
   inkscape:cy="24.000002"
   inkscape:window-x="0"
   inkscape:window-y="0"
   inkscape:window-maximized="0"
   inkscape:current-layer="Ebene_1"
   inkscape:document-rotation="0" />

  <style
   type="text/css"
   id="style3">
	.st0{clip-path:url(#SVGID_2_);fill:#FFFFFF;}
</style>

  <circle
   style="fill:#b6d46f;fill-opacity:1"
   id="path4134"
   cx="24.000002"
   cy="24.000002"
   r="22.000004" />

  <circle
   style="opacity:1;fill:#ffffff;stop-opacity:1"
   cx="24"
   cy="24"
   r="3.2"
   id="circle911" />

  <path
   style="opacity:1;fill:#ffffff;stop-opacity:1"
   inkscape:connector-curvature="0"
   d="m 21,14 -1.83,2 H 16 c -1.1,0 -2,0.9 -2,2 v 12 c 0,1.1 0.9,2 2,2 h 16 c 1.1,0 2,-0.9 2,-2 V 18 c 0,-1.1 -0.9,-2 -2,-2 H 28.83 L 27,14 Z m 3,15 c -2.76,0 -5,-2.24 -5,-5 0,-2.76 2.24,-5 5,-5 2.76,0 5,2.24 5,5 0,2.76 -2.24,5 -5,5 z"
   id="path913" />

  
</svg>
