<?xml version="1.0" encoding="utf-8"?>
<svg version="1.1" id="Ebene_1" x="0px" y="0px" viewBox="0 0 108 108" width="108px" height="108px" xmlns="http://www.w3.org/2000/svg">
<style type="text/css" id="style3">
	.st0{clip-path:url(#SVGID_2_);fill:#FFFFFF;}
</style>
<circle style="opacity:1;fill:#ffffff;stop-opacity:1" cx="54" cy="55.787" r="5.719" id="circle911"/>
<path style="opacity:1;fill:#ffffff;stop-opacity:1" d="M 48.639 37.916 L 45.368 41.491 L 39.703 41.491 C 37.738 41.491 36.129 43.099 36.129 45.065 L 36.129 66.509 C 36.129 68.475 37.738 70.084 39.703 70.084 L 68.297 70.084 C 70.262 70.084 71.871 68.475 71.871 66.509 L 71.871 45.065 C 71.871 43.099 70.262 41.491 68.297 41.491 L 62.632 41.491 L 59.361 37.916 Z M 54 64.722 C 49.068 64.722 45.065 60.719 45.065 55.787 C 45.065 50.855 49.068 46.852 54 46.852 C 58.932 46.852 62.935 50.855 62.935 55.787 C 62.935 60.719 58.932 64.722 54 64.722 Z" id="path913"/>
</svg>