<?xml version="1.0" encoding="UTF-8" standalone="no"?>
<svg
   xmlns:dc="http://purl.org/dc/elements/1.1/"
   xmlns:cc="http://creativecommons.org/ns#"
   xmlns:rdf="http://www.w3.org/1999/02/22-rdf-syntax-ns#"
   xmlns:svg="http://www.w3.org/2000/svg"
   xmlns="http://www.w3.org/2000/svg"
   xmlns:sodipodi="http://sodipodi.sourceforge.net/DTD/sodipodi-0.dtd"
   xmlns:inkscape="http://www.inkscape.org/namespaces/inkscape"
   height="48"
   width="48"
   sodipodi:docname="ic_shortcut_preferences.svg"
   inkscape:version="1.0beta1 (32d4812, 2019-09-19)"
   xml:space="preserve"
   viewBox="0 0 48.000002 48.000002"
   y="0px"
   x="0px"
   id="Ebene_1"
   version="1.1">
  <metadata
     id="metadata23">
    <rdf:RDF>
      <cc:Work
         rdf:about="">
        <dc:format>image/svg+xml</dc:format>
        <dc:type
           rdf:resource="http://purl.org/dc/dcmitype/StillImage" />
        <dc:title />
      </cc:Work>
    </rdf:RDF>
  </metadata>
  <defs
     id="defs21" />
  <sodipodi:namedview
     inkscape:document-rotation="0"
     inkscape:current-layer="Ebene_1"
     inkscape:window-maximized="0"
     inkscape:window-y="0"
     inkscape:window-x="0"
     inkscape:cy="24.000002"
     inkscape:cx="24.000002"
     inkscape:zoom="11.233354"
     inkscape:showpageshadow="false"
     showgrid="false"
     id="namedview19"
     inkscape:window-height="907"
     inkscape:window-width="1600"
     inkscape:pageshadow="2"
     inkscape:pageopacity="0"
     guidetolerance="10"
     gridtolerance="10"
     objecttolerance="10"
     borderopacity="1"
     bordercolor="#666666"
     pagecolor="#ffffff" />
  <style
     id="style3"
     type="text/css">
	.st0{clip-path:url(#SVGID_2_);fill:#FFFFFF;}
</style>
  <circle
     r="22.000004"
     cy="24.000002"
     cx="24.000002"
     id="path4134"
     style="fill:#b6d46f;fill-opacity:1" />
  <path
     id="path895"
     d="m 31.14,24.94 c 0.04,-0.3 0.06,-0.61 0.06,-0.94 0,-0.32 -0.02,-0.64 -0.07,-0.94 l 2.03,-1.58 c 0.18,-0.14 0.23,-0.41 0.12,-0.61 l -1.92,-3.32 c -0.12,-0.22 -0.37,-0.29 -0.59,-0.22 l -2.39,0.96 c -0.5,-0.38 -1.03,-0.7 -1.62,-0.94 L 26.4,14.81 C 26.36,14.57 26.16,14.4 25.92,14.4 h -3.84 c -0.24,0 -0.43,0.17 -0.47,0.41 l -0.36,2.54 c -0.59,0.24 -1.13,0.57 -1.62,0.94 l -2.39,-0.96 c -0.22,-0.08 -0.47,0 -0.59,0.22 l -1.91,3.32 c -0.12,0.21 -0.08,0.47 0.12,0.61 l 2.03,1.58 c -0.05,0.3 -0.09,0.63 -0.09,0.94 0,0.31 0.02,0.64 0.07,0.94 l -2.03,1.58 c -0.18,0.14 -0.23,0.41 -0.12,0.61 l 1.92,3.32 c 0.12,0.22 0.37,0.29 0.59,0.22 l 2.39,-0.96 c 0.5,0.38 1.03,0.7 1.62,0.94 l 0.36,2.54 c 0.05,0.24 0.24,0.41 0.48,0.41 h 3.84 c 0.24,0 0.44,-0.17 0.47,-0.41 l 0.36,-2.54 c 0.59,-0.24 1.13,-0.56 1.62,-0.94 l 2.39,0.96 c 0.22,0.08 0.47,0 0.59,-0.22 l 1.92,-3.32 c 0.12,-0.22 0.07,-0.47 -0.12,-0.61 z M 24,27.6 c -1.98,0 -3.6,-1.62 -3.6,-3.6 0,-1.98 1.62,-3.6 3.6,-3.6 1.98,0 3.6,1.62 3.6,3.6 0,1.98 -1.62,3.6 -3.6,3.6 z"
     inkscape:connector-curvature="0"
     style="opacity:1;fill:#ffffff;stop-opacity:1" />
</svg>
