<?xml version="1.0" encoding="utf-8"?>
<svg width="192" height="192" viewBox="0 0 192 192" id="svg2" version="1.1" xmlns="http://www.w3.org/2000/svg">
<circle r="88" cy="97" cx="96" id="circle-1" style="fill:#a6c45f;fill-opacity:1;stroke:none;stroke-width:4;stroke-linecap:butt;stroke-linejoin:miter;stroke-miterlimit:4;stroke-dasharray:none;stroke-opacity:1"/>
<circle style="fill:#b6d46f;fill-opacity:1;stroke:none;stroke-width:4;stroke-linecap:butt;stroke-linejoin:miter;stroke-miterlimit:4;stroke-dasharray:none;stroke-opacity:1" id="circle-2" cx="96" cy="95" r="88"/>
<path style="color:#000000;font-style:normal;font-variant:normal;font-weight:normal;font-stretch:normal;font-size:medium;line-height:normal;font-family:sans-serif;text-indent:0;text-align:start;text-decoration:none;text-decoration-line:none;text-decoration-style:solid;text-decoration-color:#000000;letter-spacing:normal;word-spacing:normal;text-transform:none;direction:ltr;block-progression:tb;writing-mode:lr-tb;baseline-shift:baseline;text-anchor:start;white-space:normal;clip-rule:nonzero;display:inline;overflow:visible;visibility:visible;opacity:1;isolation:auto;mix-blend-mode:normal;color-interpolation:sRGB;color-interpolation-filters:linearRGB;solid-color:#000000;solid-opacity:1;fill:#000000;fill-opacity:0.1254902;fill-rule:nonzero;stroke:none;stroke-width:8.60725021;stroke-linecap:butt;stroke-linejoin:miter;stroke-miterlimit:4;stroke-dasharray:none;stroke-dashoffset:0;stroke-opacity:1;color-rendering:auto;image-rendering:auto;shape-rendering:auto;text-rendering:auto;enable-background:accumulate" d="M 98.02 31.459 C 81.274 31.459 64.528 37.841 51.762 50.607 C 26.229 76.141 26.229 117.592 51.762 143.125 L 91.406 182.77 C 92.935 182.886 94.467 182.963 96 183 C 144.601 183 184 143.601 184 95 C 183.987 93.385 183.93 91.77 183.828 90.158 L 144.277 50.607 C 131.511 37.841 114.765 31.459 98.02 31.459 Z" id="path-1"/>
<circle r="64.838" cy="96.292" cx="97.284" id="circle-3" style="fill:#ffffff;fill-opacity:1;stroke:none;stroke-width:4;stroke-linecap:butt;stroke-linejoin:miter;stroke-miterlimit:4;stroke-dasharray:none;stroke-opacity:1"/>
<path d="M 143.33 96.292 C 143.33 107.56 139.283 117.883 132.562 125.886 L 132.562 66.698 C 139.283 74.701 143.33 85.024 143.33 96.292 Z M 97.284 142.338 C 95.964 142.338 94.657 142.282 93.365 142.174 L 93.365 50.41 C 94.657 50.302 95.964 50.246 97.284 50.246 C 98.604 50.246 99.911 50.302 101.203 50.41 L 101.203 142.174 C 99.911 142.282 98.604 142.338 97.284 142.338 Z M 51.238 96.292 C 51.238 85.024 55.285 74.701 62.006 66.698 L 62.006 125.886 C 55.285 117.883 51.238 107.56 51.238 96.292 Z M 116.883 137.971 C 114.384 139.148 111.762 140.107 109.042 140.823 L 109.042 51.761 C 111.762 52.477 114.384 53.436 116.883 54.613 L 116.883 137.971 Z M 85.524 140.823 C 79.783 139.311 74.48 136.718 69.847 133.275 L 69.847 59.309 C 74.48 55.866 79.783 53.273 85.524 51.761 L 85.524 140.823 Z" style="fill: rgb(0, 0, 0); fill-opacity: 1; stroke: none; stroke-width: 4; stroke-linecap: butt; stroke-linejoin: miter; stroke-miterlimit: 4; stroke-dasharray: none; stroke-opacity: 1;" id="circle-6"/>
</svg>