<?xml version="1.0" encoding="utf-8"?>
<svg xmlns="http://www.w3.org/2000/svg" width="192" height="192" viewBox="0 0 192 192" id="svg2" version="1.1">
  <path d="M 238 22 C 238 70.6 198.6 110 150 110 C 101.4 110 62 70.6 62 22 C 62 -26.6 101.4 -66 150 -66 C 198.6 -66 238 -26.6 238 22 Z M 151.28 -43.54 C 115.47 -43.54 86.45 -14.52 86.45 21.29 C 86.45 57.1 115.47 86.13 151.28 86.13 C 187.09 86.13 216.12 57.1 216.12 21.29 C 216.12 -14.52 187.09 -43.54 151.28 -43.54 Z M 149.44 -12.02 C 150.33 -12.01 151.21 -11.97 152.1 -11.89 C 150.78 -8.92 150.09 -5.7 150.08 -2.45 C 150.08 10.42 160.52 20.85 173.39 20.85 C 177.26 20.85 181.06 19.88 184.46 18.03 C 184.75 19.82 184.9 21.63 184.9 23.44 C 184.9 43.03 169.03 58.91 149.44 58.91 C 129.85 58.91 113.97 43.03 113.97 23.44 C 113.97 3.85 129.85 -12.02 149.44 -12.02 Z" id="circle4151" style="fill:#1b1b1b;fill-opacity:1;stroke:none;stroke-width:4;stroke-linecap:butt;stroke-linejoin:miter;stroke-miterlimit:4;stroke-dasharray:none;stroke-opacity:1"/>
</svg>