<?xml version="1.0" encoding="utf-8"?>
<svg width="108" height="108" id="svg3317" version="1.1" viewBox="0 0 108 108" xmlns="http://www.w3.org/2000/svg">
<path style="color:#000000;font-style:normal;font-variant:normal;font-weight:normal;font-stretch:normal;font-size:medium;line-height:normal;font-family:sans-serif;text-indent:0;text-align:start;text-decoration:none;text-decoration-line:none;text-decoration-style:solid;text-decoration-color:#000000;letter-spacing:normal;word-spacing:normal;text-transform:none;direction:ltr;block-progression:tb;writing-mode:lr-tb;baseline-shift:baseline;text-anchor:start;white-space:normal;clip-rule:nonzero;display:inline;overflow:visible;visibility:visible;opacity:1;isolation:auto;mix-blend-mode:normal;color-interpolation:sRGB;color-interpolation-filters:linearRGB;solid-color:#000000;solid-opacity:1;fill:#000000;fill-opacity:0.1254902;fill-rule:nonzero;stroke:none;stroke-width:8.60725021;stroke-linecap:butt;stroke-linejoin:miter;stroke-miterlimit:4;stroke-dasharray:none;stroke-dashoffset:0;stroke-opacity:1;color-rendering:auto;image-rendering:auto;shape-rendering:auto;text-rendering:auto;enable-background:accumulate" d="M 54.826 27.894 C 47.976 27.894 41.125 30.475 35.903 35.639 C 25.457 45.967 25.489 62.701 35.903 73.062 L 72.121 109.098 L 108 108 L 109.93 71.637 L 73.75 35.639 C 68.543 30.459 61.677 27.894 54.826 27.894 Z" id="path5462"/>
<ellipse cy="54" cx="54" id="circle5467" style="fill:#ffffff;fill-opacity:1;stroke:none;stroke-width:4;stroke-linecap:butt;stroke-linejoin:miter;stroke-miterlimit:4;stroke-dasharray:none;stroke-opacity:1" rx="26.525" ry="26.5"/>
<text style="font-style: normal; font-weight: normal; font-size: 16.2714px; line-height: 125%; font-family: Sans; letter-spacing: 0px; word-spacing: 0px; fill: rgb(0, 0, 0); fill-opacity: 1; stroke: none; white-space: pre;" x="1971.7896" y="2043.4055" id="text5084-38" transform="matrix(1.005666, 0, 0, 0.994366, 0, -944.362183)"><tspan id="tspan5086-2" x="1971.7896" y="2043.4055"/></text>
<text style="font-style: normal; font-weight: normal; font-size: 40px; line-height: 125%; font-family: Sans; letter-spacing: 0px; word-spacing: 0px; fill: rgb(0, 0, 0); fill-opacity: 1; stroke: none; white-space: pre;" x="4973.289" y="3504.517" id="text-1"><tspan id="tspan-1" x="4973.289" y="3504.517" style="font-size: 40px; word-spacing: 0px;"/></text>
<path d="M 72.745 54.001 C 72.745 58.588 71.099 62.791 68.362 66.049 L 68.362 41.953 C 71.099 45.21 72.745 49.412 72.745 54.001 Z M 54.001 72.745 C 53.463 72.745 52.931 72.723 52.406 72.679 L 52.406 35.322 C 52.931 35.278 53.463 35.255 54.001 35.255 C 54.538 35.255 55.071 35.278 55.596 35.322 L 55.596 72.679 C 55.071 72.723 54.538 72.745 54.001 72.745 Z M 35.255 54.001 C 35.255 49.412 36.903 45.21 39.638 41.953 L 39.638 66.049 C 36.903 62.791 35.255 58.588 35.255 54.001 Z M 61.98 70.969 C 60.961 71.447 59.895 71.838 58.789 72.13 L 58.789 35.873 C 59.895 36.164 60.961 36.553 61.98 37.032 L 61.98 70.969 Z M 49.213 72.13 C 46.877 71.514 44.717 70.458 42.831 69.056 L 42.831 38.945 C 44.717 37.543 46.877 36.487 49.213 35.873 L 49.213 72.13 Z" style="fill: rgb(0, 0, 0); fill-opacity: 1; stroke: none; stroke-width: 4; stroke-linecap: butt; stroke-linejoin: miter; stroke-miterlimit: 4; stroke-dasharray: none; stroke-opacity: 1;" id="path-1"/>
<g id="g4345" transform="matrix(0.081869, -0.122121, 0.123509, 0.080949, -58.538059, -15.154785)">
<path transform="matrix(-0.71624605,0,0,0.71624605,252.9668,272.6866)" id="path4155" d="m 70.800257,803.10815 c 18.72634,-10.81207 42.064013,-4.55865 52.875453,14.16738 6.21553,10.76497 6.67525,22.98383 2.43735,33.71348 9.95484,0.22482 20.00712,3.82743 29.87632,9.35284 5.70581,-16.36426 17.92669,-30.34 32.41043,-37.86744 a 7.6098878,7.6098878 0 0 1 2.05397,-0.12843 7.6098878,7.6098878 0 0 1 2.05385,-0.12842 7.6098878,7.6098878 0 0 1 3.78076,1.01708 7.6098878,7.6098878 0 0 1 2.18403,1.941 7.6098878,7.6098878 0 0 1 1.16879,5.70957 7.6098878,7.6098878 0 0 1 -0.34046,1.25368 7.6098878,7.6098878 0 0 1 -0.34045,1.25368 7.6098878,7.6098878 0 0 1 -1.13869,1.71405 7.6098878,7.6098878 0 0 1 -2.39442,1.38323 c -12.33033,6.40652 -22.54596,18.62752 -26.1492,32.12255 6.50822,5.40015 12.37934,12.05934 17.69138,19.58251 2.94622,-3.19898 6.27645,-6.41509 9.78804,-8.85073 10.09338,-6.95039 22.03067,-10.77888 33.55578,-11.9223 a 7.6098878,7.6098878 0 0 1 1.25571,0.33189 7.6098878,7.6098878 0 0 1 2.51017,0.66378 7.6098878,7.6098878 0 0 1 2.18447,1.94102 7.6098878,7.6098878 0 0 1 2.42684,6.04679 7.6098878,7.6098878 0 0 1 -1.00849,3.78247 7.6098878,7.6098878 0 0 1 -1.5963,0.92072 7.6098878,7.6098878 0 0 1 -1.59626,0.92072 7.6098878,7.6098878 0 0 1 -2.85201,0.58884 c -13.65036,1.36931 -27.8309,8.78649 -36.37383,19.9433 4.14518,8.3272 7.21579,16.27327 8.91185,24.65187 15.54086,-3.62622 31.79047,-2.0192 45.28817,4.71176 a 7.6098878,7.6098878 0 0 1 1.71243,1.12411 7.6098878,7.6098878 0 0 1 1.84305,3.19152 7.6098878,7.6098878 0 0 1 0.45715,0.79218 7.6098878,7.6098878 0 0 1 0.58777,2.8607 7.6098878,7.6098878 0 0 1 -0.34045,1.25368 7.6098878,7.6098878 0 0 1 -0.34046,1.25368 7.6098878,7.6098878 0 0 1 -1.1386,1.71511 7.6098878,7.6098878 0 0 1 -1.1387,1.71411 7.6098878,7.6098878 0 0 1 -2.05385,0.12842 7.6098878,7.6098878 0 0 1 -1.59627,0.92073 7.6098878,7.6098878 0 0 1 -1.25582,-0.33184 7.6098878,7.6098878 0 0 1 -2.51059,-0.66378 7.6098878,7.6098878 0 0 1 -1.25572,-0.33193 c -10.93219,-5.45468 -24.04674,-6.71593 -36.1414,-3.61644 0.84257,22.7793 -7.86138,42.849 -24.91405,52.6953 -17.24869,9.95781 -39.08043,6.90761 -58.55086,-5.565 -8.96849,9.0596 -14.53598,22.16701 -15.27897,34.36191 a 7.6098878,7.6098878 0 0 1 0.11664,2.0437 7.6098878,7.6098878 0 0 1 -0.34045,1.2537 7.6098878,7.6098878 0 0 1 -0.79867,0.4604 7.6098878,7.6098878 0 0 1 -1.1387,1.7141 7.6098878,7.6098878 0 0 1 -0.79761,0.4603 7.6098878,7.6098878 0 0 1 -1.59628,0.9207 7.6098878,7.6098878 0 0 1 -2.05385,0.129 7.6098878,7.6098878 0 0 1 -2.053973,0.1289 7.6098878,7.6098878 0 0 1 -4.69933,-2.6091 7.6098878,7.6098878 0 0 1 -0.45715,-0.7922 7.6098878,7.6098878 0 0 1 -1.04491,-3.6529 7.6098878,7.6098878 0 0 1 0.34045,-1.2527 c 0.91965,-15.0554 7.652193,-29.93151 18.564363,-41.57551 -6.41905,-5.6678 -12.547323,-11.8152 -17.691493,-19.58247 -13.6403,2.06297 -26.80473,10.14937 -34.66043,21.06847 a 7.6098878,7.6098878 0 0 1 -0.34045,1.2537 7.6098878,7.6098878 0 0 1 -0.79761,0.4604 7.6098878,7.6098878 0 0 1 -5.24642,1.9721 7.6098878,7.6098878 0 0 1 -1.25572,-0.3319 7.6098878,7.6098878 0 0 1 -4.23746,-1.8104 7.6098878,7.6098878 0 0 1 -0.45714,-0.7923 7.6098878,7.6098878 0 0 1 -1.04492,-3.6539 7.6098878,7.6098878 0 0 1 -0.45822,-0.7923 7.6098878,7.6098878 0 0 1 1.00851,-3.7825 7.6098878,7.6098878 0 0 1 0.34045,-1.2536 c 6.76957,-9.3808 16.03633,-17.83431 27.10278,-23.09844 3.86662,-1.82118 8.31639,-3.09838 12.56029,-4.05121 -3.85055,-8.35079 -6.69506,-16.79143 -8.11382,-25.11222 -13.48882,-3.62722 -29.18257,-0.8993 -40.89482,6.58318 a 7.6098878,7.6098878 0 0 1 -1.59627,0.92073 7.6098878,7.6098878 0 0 1 -2.05386,0.12842 7.6098878,7.6098878 0 0 1 -2.05396,0.12843 7.6098878,7.6098878 0 0 1 -3.78033,-1.01711 7.6098878,7.6098878 0 0 1 -0.45714,-0.79226 7.6098878,7.6098878 0 0 1 -1.84348,-3.19254 7.6098878,7.6098878 0 0 1 -0.45715,-0.79225 7.6098878,7.6098878 0 0 1 0.55137,-4.57469 7.6098878,7.6098878 0 0 1 1.59627,-0.92074 7.6098878,7.6098878 0 0 1 0.34046,-1.25368 7.6098878,7.6098878 0 0 1 0.79759,-0.46035 7.6098878,7.6098878 0 0 1 0.34046,-1.25262 c 13.75648,-8.78862 31.97364,-12.37945 48.99964,-9.13551 0.14989,-11.34095 2.02912,-21.8008 6.83756,-30.5509 -11.50435,-1.63589 -22.5161,-7.66449 -28.77541,-18.50548 -10.81155,-18.72602 -3.76051,-42.52566 14.96583,-53.33667 z" style="fill:#ff2a2a;fill-opacity:1;stroke:none"/>
<path id="path3847" d="m 172.88153,898.78816 c 1.83132,1.05745 -6.95107,19.96031 -20.00325,42.56771 -13.05188,22.60654 -25.3621,40.23658 -27.19342,39.17911 -1.83139,-1.05746 7.28157,-20.53316 20.33346,-43.13977 13.05218,-22.60659 25.03181,-39.66449 26.86321,-38.60705 z" style="fill:#d40000;fill-opacity:1;stroke:none"/>
</g>
</svg>